<svg width="1224" height="135" viewBox="0 0 1224 135" fill="none" xmlns="http://www.w3.org/2000/svg">
<g clip-path="url(#clip0_25_2)">
<circle cx="67.5" cy="67.5" r="67.5" fill="#2CB67D"/>
<path d="M65.0301 36.2707C65.9098 37.2181 69.2256 43.0376 72.406 49.2632L78.1579 60.5639L89.8647 60.7669L101.504 60.9023V55.2857C101.504 49.5338 102.045 48.0451 104.211 48.0451C105.361 48.0451 121.128 66.2481 121.128 67.6015C121.128 68.9549 105.361 87.2932 104.211 87.2932C102.113 87.2932 101.504 85.8045 101.504 80.1203C101.504 75.7218 101.301 74.5038 100.421 74.1654C98.9323 73.5564 79.6466 73.6917 78.7669 74.3008C78.3609 74.5714 75.4511 79.782 72.406 85.9399C69.3609 92.0978 66.0451 97.9173 65.0977 98.9323L63.3383 100.827H47.5038H31.6692H30.9925C24.3609 100.827 24.3609 88.8496 30.9925 88.8496C31.7199 88.8158 37.7594 88.1729 44.6617 87.9699L57.1805 87.6316L62.2556 77.6842L67.3308 67.6692L62.2556 57.7218L57.1805 47.7068L44.6617 47.3684C37.7594 47.1654 31.9737 46.6917 30.9925 46.4887C24.3609 46.4887 24.3609 34.5113 31.6692 34.5113H47.5038H63.406L65.0301 36.2707Z" fill="#FFFFFE"/>
<path d="M170.271 109C169.086 109 168.493 108.407 168.493 107.222V27.593C168.493 26.4077 169.086 25.815 170.271 25.815H237.327C238.428 25.815 238.978 26.4077 238.978 27.593V107.222C238.978 108.407 238.428 109 237.327 109H219.928C218.743 109 218.15 108.407 218.15 107.222V43.976H189.448V107.222C189.448 108.407 188.898 109 187.797 109H170.271ZM255.723 109C254.538 109 253.945 108.407 253.945 107.222V27.593C253.945 26.4077 254.538 25.815 255.723 25.815H282.393C294.331 25.815 302.925 28.2703 308.174 33.181C313.508 38.0917 316.175 45.2037 316.175 54.517C316.175 63.4917 313.381 70.4767 307.793 75.472C302.29 80.3827 293.865 82.838 282.52 82.838H274.9V107.222C274.9 108.407 274.307 109 273.122 109H255.723ZM274.9 65.058H282.266C286.415 65.058 289.59 64.2537 291.791 62.645C294.077 61.0363 295.22 58.327 295.22 54.517C295.22 50.6223 294.162 47.8707 292.045 46.262C289.928 44.5687 286.669 43.722 282.266 43.722H274.9V65.058ZM314.317 109C312.962 109 312.496 108.323 312.92 106.968L339.336 27.212C339.674 26.2807 340.352 25.815 341.368 25.815H363.974C364.99 25.815 365.667 26.2807 366.006 27.212L392.549 106.968C392.887 108.323 392.422 109 391.152 109H372.102C371.001 109 370.324 108.534 370.07 107.603L357.243 61.629C356.396 58.581 355.592 55.533 354.83 52.485C354.068 49.437 353.348 46.4313 352.671 43.468H352.417C351.739 46.516 351.02 49.564 350.258 52.612C349.496 55.66 348.691 58.708 347.845 61.756L335.272 107.476C335.018 108.492 334.34 109 333.24 109H314.317ZM335.907 94.141L339.209 77.758H365.498L368.927 94.141H335.907ZM401.324 109C400.223 109 399.673 108.407 399.673 107.222V27.593C399.673 26.4077 400.223 25.815 401.324 25.815H418.215C419.315 25.815 419.866 26.4077 419.866 27.593V54.517C419.866 57.7343 419.781 60.867 419.612 63.915C419.442 66.8783 419.231 69.7993 418.977 72.678C418.723 75.472 418.426 78.3507 418.088 81.314H418.469C419.569 78.4353 420.712 75.6413 421.898 72.932C423.168 70.138 424.607 67.2593 426.216 64.296C427.909 61.3327 429.814 58.073 431.931 54.517L447.933 27.085C448.441 26.2383 449.118 25.815 449.965 25.815H468.507C469.692 25.815 470.285 26.4077 470.285 27.593V107.222C470.285 108.407 469.692 109 468.507 109H451.87C450.684 109 450.092 108.407 450.092 107.222V81.822C450.092 77.1653 450.219 72.551 450.473 67.979C450.727 63.3223 451.108 58.7927 451.616 54.39H451.108C450.092 57.0147 448.949 59.597 447.679 62.137C446.409 64.5923 444.885 67.3863 443.107 70.519C441.329 73.567 439.127 77.3347 436.503 81.822L421.898 107.73C421.474 108.577 420.839 109 419.993 109H401.324ZM434.979 19.338C430.915 19.338 427.189 18.576 423.803 17.052C420.416 15.4433 417.961 13.9193 416.437 12.48C416.098 12.1413 415.929 11.5487 415.929 10.702V0.414998C415.929 -0.431673 416.098 -0.939674 416.437 -1.10901C416.86 -1.27834 417.368 -1.109 417.961 -0.601004C419.739 0.838331 422.194 2.27766 425.327 3.71699C428.459 5.07166 431.677 5.749 434.979 5.749C438.196 5.749 441.371 5.07166 444.504 3.71699C447.636 2.27766 450.134 0.838331 451.997 -0.601004C452.505 -1.109 452.928 -1.27834 453.267 -1.10901C453.69 -0.939674 453.902 -0.431673 453.902 0.414998V10.702C453.902 11.5487 453.732 12.1413 453.394 12.48C451.87 13.9193 449.414 15.4433 446.028 17.052C442.641 18.576 438.958 19.338 434.979 19.338ZM519.539 110.524C508.278 110.524 499.473 107.815 493.123 102.396C486.858 96.9773 483.725 88.5953 483.725 77.25V57.819C483.725 46.3043 486.858 37.8377 493.123 32.419C499.473 27.0003 508.278 24.291 519.539 24.291C527.752 24.291 534.652 25.561 540.24 28.101C545.828 30.641 549.934 34.2393 552.559 38.896C555.184 43.468 556.073 48.8867 555.226 55.152C555.141 55.66 554.93 56.0833 554.591 56.422C554.337 56.7607 553.956 56.93 553.448 56.93H535.922C534.821 56.93 534.271 56.295 534.271 55.025C534.356 51.215 533.255 48.167 530.969 45.881C528.683 43.5103 524.958 42.325 519.793 42.325C515.052 42.325 511.326 43.6373 508.617 46.262C505.992 48.802 504.68 52.9083 504.68 58.581V76.234C504.68 81.9067 505.992 86.0553 508.617 88.68C511.326 91.22 515.052 92.49 519.793 92.49C525.212 92.49 529.022 91.2623 531.223 88.807C533.424 86.267 534.44 83.2613 534.271 79.79C534.271 78.52 534.821 77.885 535.922 77.885H553.321C554.422 77.885 555.057 78.4777 555.226 79.663C555.819 85.9283 554.76 91.3893 552.051 96.046C549.426 100.618 545.362 104.174 539.859 106.714C534.356 109.254 527.582 110.524 519.539 110.524Z" fill="white"/>
<path d="M586.92 109C585.566 109 585.1 108.323 585.523 106.968L611.939 27.212C612.278 26.2807 612.955 25.815 613.971 25.815H636.577C637.593 25.815 638.271 26.2807 638.609 27.212L665.152 106.968C665.491 108.323 665.025 109 663.755 109H644.705C643.605 109 642.927 108.534 642.673 107.603L629.846 61.629C629 58.581 628.195 55.533 627.433 52.485C626.671 49.437 625.952 46.4313 625.274 43.468H625.02C624.343 46.516 623.623 49.564 622.861 52.612C622.099 55.66 621.295 58.708 620.448 61.756L607.875 107.476C607.621 108.492 606.944 109 605.843 109H586.92ZM608.51 94.141L611.812 77.758H638.101L641.53 94.141H608.51ZM673.927 109C672.827 109 672.276 108.407 672.276 107.222V27.593C672.276 26.4077 672.869 25.815 674.054 25.815H721.679C722.865 25.815 723.457 26.4077 723.457 27.593V42.198C723.457 43.3833 722.865 43.976 721.679 43.976H693.231V107.222C693.231 108.407 692.639 109 691.453 109H673.927ZM735.074 109C733.888 109 733.296 108.407 733.296 107.222V27.593C733.296 26.4077 733.888 25.815 735.074 25.815H761.744C773.682 25.815 782.275 28.2703 787.525 33.181C792.859 38.0917 795.526 45.2037 795.526 54.517C795.526 63.4917 792.732 70.4767 787.144 75.472C781.64 80.3827 773.216 82.838 761.871 82.838H754.251V107.222C754.251 108.407 753.658 109 752.473 109H735.074ZM754.251 65.058H761.617C765.765 65.058 768.94 64.2537 771.142 62.645C773.428 61.0363 774.571 58.327 774.571 54.517C774.571 50.6223 773.512 47.8707 771.396 46.262C769.279 44.5687 766.019 43.722 761.617 43.722H754.251V65.058ZM808.248 109C807.062 109 806.47 108.407 806.47 107.222V27.593C806.47 26.4077 807.062 25.815 808.248 25.815H861.08C862.18 25.815 862.731 26.4077 862.731 27.593V42.198C862.731 43.3833 862.18 43.976 861.08 43.976H827.425V58.581H858.032C859.132 58.581 859.683 59.1737 859.683 60.359V73.948C859.683 75.1333 859.132 75.726 858.032 75.726H827.425V90.839H861.08C862.18 90.839 862.731 91.4317 862.731 92.617V107.222C862.731 108.407 862.18 109 861.08 109H808.248ZM877.822 109C876.721 109 876.171 108.407 876.171 107.222V27.593C876.171 26.4077 876.763 25.815 877.949 25.815H925.574C926.759 25.815 927.352 26.4077 927.352 27.593V42.198C927.352 43.3833 926.759 43.976 925.574 43.976H897.126V107.222C897.126 108.407 896.533 109 895.348 109H877.822ZM923.148 109C921.793 109 921.328 108.323 921.751 106.968L948.167 27.212C948.506 26.2807 949.183 25.815 950.199 25.815H972.805C973.821 25.815 974.498 26.2807 974.837 27.212L1001.38 106.968C1001.72 108.323 1001.25 109 999.983 109H980.933C979.832 109 979.155 108.534 978.901 107.603L966.074 61.629C965.227 58.581 964.423 55.533 963.661 52.485C962.899 49.437 962.179 46.4313 961.502 43.468H961.248C960.571 46.516 959.851 49.564 959.089 52.612C958.327 55.66 957.523 58.708 956.676 61.756L944.103 107.476C943.849 108.492 943.172 109 942.071 109H923.148ZM944.738 94.141L948.04 77.758H974.329L977.758 94.141H944.738ZM1020.12 109C1019.01 109 1018.46 108.407 1018.46 107.222V43.976H997.636C996.451 43.976 995.858 43.3833 995.858 42.198V27.593C995.858 26.4077 996.451 25.815 997.636 25.815H1060.12C1061.22 25.815 1061.77 26.4077 1061.77 27.593V42.198C1061.77 43.3833 1061.22 43.976 1060.12 43.976H1039.29V107.222C1039.29 108.407 1038.7 109 1037.51 109H1020.12ZM1104.56 110.524C1092.71 110.524 1083.74 107.73 1077.64 102.142C1071.54 96.554 1068.5 88.299 1068.5 77.377V57.438C1068.5 46.4313 1071.54 38.1763 1077.64 32.673C1083.74 27.085 1092.71 24.291 1104.56 24.291C1116.42 24.291 1125.39 27.085 1131.49 32.673C1137.67 38.1763 1140.76 46.4313 1140.76 57.438V77.377C1140.76 88.299 1137.67 96.554 1131.49 102.142C1125.39 107.73 1116.42 110.524 1104.56 110.524ZM1104.56 92.236C1109.73 92.236 1113.54 90.839 1115.99 88.045C1118.53 85.251 1119.8 81.2293 1119.8 75.98V58.835C1119.8 53.5857 1118.53 49.564 1115.99 46.77C1113.54 43.976 1109.73 42.579 1104.56 42.579C1099.48 42.579 1095.67 43.976 1093.13 46.77C1090.68 49.564 1089.45 53.5857 1089.45 58.835V75.98C1089.45 81.2293 1090.68 85.251 1093.13 88.045C1095.67 90.839 1099.48 92.236 1104.56 92.236ZM1156.01 109C1154.82 109 1154.23 108.407 1154.23 107.222V27.593C1154.23 26.4077 1154.82 25.815 1156.01 25.815H1182.68C1194.62 25.815 1203.21 28.2703 1208.46 33.181C1213.79 38.0917 1216.46 45.2037 1216.46 54.517C1216.46 63.4917 1213.67 70.4767 1208.08 75.472C1202.58 80.3827 1194.15 82.838 1182.81 82.838H1175.19V107.222C1175.19 108.407 1174.59 109 1173.41 109H1156.01ZM1175.19 65.058H1182.55C1186.7 65.058 1189.88 64.2537 1192.08 62.645C1194.36 61.0363 1195.51 58.327 1195.51 54.517C1195.51 50.6223 1194.45 47.8707 1192.33 46.262C1190.21 44.5687 1186.95 43.722 1182.55 43.722H1175.19V65.058Z" fill="url(#paint0_linear_25_2)"/>
</g>
<defs>
<linearGradient id="paint0_linear_25_2" x1="550.031" y1="15" x2="1223.24" y2="56.9214" gradientUnits="userSpaceOnUse">
<stop stop-color="#986BFB"/>
<stop offset="0.748161" stop-color="#2FE8D1"/>
<stop offset="1" stop-color="#2CB67D"/>
</linearGradient>
<clipPath id="clip0_25_2">
<rect width="1224" height="135" fill="white"/>
</clipPath>
</defs>
</svg>
