<svg width="267" height="267" viewBox="0 0 267 267" fill="none" xmlns="http://www.w3.org/2000/svg">
<circle cx="133" cy="133" r="133" fill="#2CB67D"/>
<path d="M128.133 71.4667C129.867 73.3333 136.4 84.8 142.667 97.0667L154 119.333L177.067 119.733L200 120V108.933C200 97.6 201.067 94.6667 205.333 94.6667C207.6 94.6667 238.667 130.533 238.667 133.2C238.667 135.867 207.6 172 205.333 172C201.2 172 200 169.067 200 157.867C200 149.2 199.6 146.8 197.867 146.133C194.933 144.933 156.933 145.2 155.2 146.4C154.4 146.933 148.667 157.2 142.667 169.333C136.667 181.467 130.133 192.933 128.267 194.933L124.8 198.667H93.6H62.4H61.0667C48 198.667 48 175.067 61.0667 175.067C62.5 175 74.4 173.733 88 173.333L112.667 172.667L122.667 153.067L132.667 133.333L122.667 113.733L112.667 94L88 93.3333C74.4 92.9333 63 92 61.0667 91.6C48 91.6 48 68 62.4 68H93.6H124.933L128.133 71.4667Z" fill="#FFFFFE"/>
</svg>
